Coordinates
version=1
nRows=18
nColumns=63
inDegrees=yes

Units are S.I. units (second, meters, Newtons, ...)
If the header above contains a line with 'inDegrees', this indicates whether rotational values are in degrees (yes) or radians (no).

endheader
time	pelvis_tilt	pelvis_list	pelvis_rotation	pelvis_tx	pelvis_ty	pelvis_tz	hip_flexion_r	hip_adduction_r	hip_rotation_r	knee_angle_r	knee_angle_r_beta	ankle_angle_r	subtalar_angle_r	mtp_angle_r	hip_flexion_l	hip_adduction_l	hip_rotation_l	knee_angle_l	knee_angle_l_beta	ankle_angle_l	subtalar_angle_l	mtp_angle_l	L5_S1_Flex_Ext	L5_S1_Lat_Bending	L5_S1_axial_rotation	L4_L5_Flex_Ext	L4_L5_Lat_Bending	L4_L5_axial_rotation	L3_L4_Flex_Ext	L3_L4_Lat_Bending	L3_L4_axial_rotation	L2_L3_Flex_Ext	L2_L3_Lat_Bending	L2_L3_axial_rotation	L1_L2_Flex_Ext	L1_L2_Lat_Bending	L1_L2_axial_rotation	L1_T12_Flex_Ext	L1_T12_Lat_Bending	L1_T12_axial_rotation	Abs_r3	Abs_r2	Abs_r1	Abs_t1	Abs_t2	neck_flexion	neck_bending	neck_rotation	arm_flex_r	arm_add_r	arm_rot_r	elbow_flex_r	pro_sup_r	wrist_flex_r	wrist_dev_r	arm_flex_l	arm_add_l	arm_rot_l	elbow_flex_l	pro_sup_l	wrist_flex_l	wrist_dev_l
3.316667	3.897576	-6.510043	109.161982	0.119436	0.941696	0.466707	8.625982	1.514766	-28.873388	10.749168	0.187608	28.224823	17.125916	0.000000	13.651299	-3.582783	0.130853	16.610636	0.289910	28.725322	-9.796453	0.000000	-0.128794	-0.144944	1.627973	-0.239183	-0.192776	1.729721	-0.211595	-0.352417	1.729721	-0.147198	-0.352417	1.424476	-0.119598	-0.295570	1.322728	-0.073593	-0.224518	1.220979	-0.919961	-1.639636	9.054295	0.000000	0.000000	-0.179064	-3.717646	8.796991	5.176544	-9.148907	52.101376	52.251922	25.469174	-5.580775	14.879797	13.934220	-8.010929	61.181161	51.506681	80.381123	5.938867	16.022917
3.333333	3.834395	-6.422740	109.250257	0.118989	0.941938	0.466203	8.459833	1.481889	-28.919400	10.710122	0.186927	28.337972	17.090199	0.000000	13.343273	-3.545193	-0.026493	16.273630	0.284028	28.660181	-9.421472	0.000000	-0.120467	-0.141620	1.590803	-0.223719	-0.188355	1.690229	-0.197915	-0.344335	1.690229	-0.137681	-0.344335	1.391953	-0.111865	-0.288792	1.292528	-0.068835	-0.219370	1.193103	-0.860481	-1.602036	8.847571	0.000000	0.000000	-0.430949	-3.558472	8.918505	5.306723	-9.057943	51.968527	51.890929	26.980551	-4.822903	15.588770	13.903047	-7.857177	61.067399	51.152086	80.657356	5.798120	15.746360
3.350000	3.739245	-6.319286	109.316818	0.118532	0.942206	0.465609	8.273392	1.417873	-28.954722	10.699346	0.186739	28.419578	17.042872	0.000000	12.974030	-3.482006	-0.223551	15.882076	0.277195	28.577736	-8.984020	0.000000	-0.114801	-0.141612	1.570150	-0.213196	-0.188343	1.668284	-0.188606	-0.344314	1.668284	-0.131206	-0.344314	1.373881	-0.106604	-0.288774	1.275747	-0.065597	-0.219356	1.177613	-0.820010	-1.601938	8.732704	0.000000	0.000000	-0.650669	-3.477702	8.970557	5.342803	-8.942857	51.667361	51.550982	28.377328	-4.127576	16.267948	13.967450	-7.693537	61.195968	50.760296	80.835665	5.612028	15.446296
3.366667	3.618191	-6.215594	109.369260	0.118071	0.942478	0.464921	8.084769	1.323283	-28.983470	10.715663	0.187024	28.471059	16.993766	0.000000	12.569472	-3.387799	-0.392259	15.450301	0.269659	28.450668	-8.600037	0.000000	-0.110440	-0.145413	1.552724	-0.205099	-0.193399	1.649769	-0.181443	-0.353557	1.649769	-0.126222	-0.353557	1.358634	-0.102555	-0.296526	1.261588	-0.063106	-0.225245	1.164543	-0.788865	-1.644942	8.635786	0.000000	0.000000	-0.816587	-3.478612	9.020162	5.347172	-8.825348	51.381040	51.254721	29.392871	-3.553701	16.806823	14.034996	-7.536175	61.326636	50.391180	81.067008	5.504338	15.250393
3.383333	3.474114	-6.117228	109.397626	0.117627	0.942748	0.464135	7.904214	1.198204	-29.006041	10.765887	0.187900	28.500318	16.957030	0.000000	12.142176	-3.273869	-0.589932	14.992040	0.261660	28.312037	-8.206737	0.000000	-0.108054	-0.152962	1.535834	-0.200667	-0.203440	1.631823	-0.177522	-0.371913	1.631823	-0.123495	-0.371913	1.343855	-0.100339	-0.311921	1.247865	-0.061742	-0.236939	1.151875	-0.771820	-1.730341	8.541846	0.000000	0.000000	-0.912953	-3.572569	9.105223	5.322169	-8.715550	51.121466	51.035461	29.971019	-3.122863	17.151979	14.073332	-7.392680	61.375820	50.071817	81.379741	5.520288	15.185927
3.400000	3.310206	-6.029013	109.406392	0.117198	0.943014	0.463258	7.736587	1.044734	-29.016793	10.846985	0.189316	28.509736	16.926344	0.000000	11.706988	-3.139832	-0.807419	14.519370	0.253411	28.179425	-7.805952	0.000000	-0.108084	-0.164077	1.514906	-0.200722	-0.218223	1.609588	-0.177571	-0.398938	1.609588	-0.123529	-0.398938	1.325543	-0.100367	-0.334587	1.230861	-0.061759	-0.254156	1.136180	-0.772032	-1.856077	8.425455	0.000000	0.000000	-0.941601	-3.745137	9.262357	5.264902	-8.614679	50.868270	50.907660	30.189473	-2.817744	17.336871	14.060909	-7.282543	61.323522	49.848628	81.777233	5.555722	15.247497
3.416667	3.123330	-5.949223	109.398607	0.116794	0.943280	0.462327	7.579732	0.858529	-29.026002	10.960411	0.191295	28.503795	16.912569	0.000000	11.268032	-2.974837	-0.952426	14.036827	0.244989	28.026576	-7.528215	0.000000	-0.111957	-0.179598	1.491650	-0.207915	-0.238865	1.584878	-0.183934	-0.436674	1.584878	-0.127956	-0.436674	1.305193	-0.103963	-0.366236	1.211965	-0.063972	-0.278197	1.118737	-0.799698	-2.031648	8.296108	0.000000	0.000000	-0.921318	-3.949712	9.451228	5.191612	-8.536032	50.657601	50.881767	29.965249	-2.615382	17.341300	14.048899	-7.221212	61.278911	49.711689	81.993451	5.644467	15.449084
3.433333	2.917975	-5.887082	109.358403	0.116429	0.943537	0.461321	7.442432	0.644293	-29.013084	11.102972	0.193783	28.501838	16.901254	0.000000	10.841912	-2.785473	-1.048889	13.563015	0.236719	27.890630	-7.328476	0.000000	-0.117832	-0.198618	1.461673	-0.218825	-0.264161	1.553027	-0.193586	-0.482919	1.553027	-0.134670	-0.482919	1.278964	-0.109419	-0.405021	1.187609	-0.067329	-0.307659	1.096255	-0.841660	-2.246802	8.129386	0.000000	0.000000	-0.891471	-4.148411	9.771456	5.106012	-8.459125	50.494873	50.930330	29.459291	-2.539694	17.145973	13.925811	-7.212422	61.027624	49.692726	82.359751	5.716601	15.690659
3.450000	2.689525	-5.832770	109.275842	0.116120	0.943787	0.460304	7.320911	0.397499	-28.977022	11.285489	0.196969	28.513947	16.895380	0.000000	10.426301	-2.558362	-0.970780	13.116450	0.228925	27.730662	-7.390385	0.000000	-0.127195	-0.221605	1.434899	-0.236213	-0.294735	1.524580	-0.208968	-0.538810	1.524580	-0.145371	-0.538810	1.255537	-0.118113	-0.451897	1.165855	-0.072679	-0.343266	1.076174	-0.908538	-2.506840	7.980478	0.000000	0.000000	-0.879972	-4.310912	10.116886	5.019522	-8.396168	50.386705	51.044576	28.549014	-2.573502	16.783889	13.803200	-7.253338	60.786494	49.748501	82.460105	5.824304	16.058420
3.466667	2.457298	-5.779793	109.204717	0.115848	0.944025	0.459299	7.197602	0.143110	-28.967779	11.473956	0.200258	28.563661	16.905009	0.000000	10.040619	-2.328036	-0.881256	12.720746	0.222019	27.600392	-7.429217	0.000000	-0.138825	-0.246558	1.395250	-0.257811	-0.327922	1.482453	-0.228075	-0.599481	1.482453	-0.158663	-0.599481	1.220843	-0.128913	-0.502781	1.133640	-0.079324	-0.381918	1.046437	-0.991611	-2.789111	7.759960	0.000000	0.000000	-0.925224	-4.329012	10.594524	4.980481	-8.339804	50.410371	51.184972	27.382156	-2.721123	16.338258	13.604050	-7.357919	60.429814	49.894005	82.444979	5.832013	16.424704
3.483333	2.228802	-5.720086	109.121585	0.115614	0.944244	0.458328	7.076042	-0.111393	-28.979053	11.678394	0.203826	28.663415	16.933280	0.000000	9.686466	-2.092863	-0.668183	12.401246	0.216443	27.464680	-7.627606	0.000000	-0.151487	-0.272409	1.354966	-0.281326	-0.362304	1.439651	-0.248877	-0.662336	1.439651	-0.173134	-0.662336	1.185595	-0.140670	-0.555497	1.100910	-0.086559	-0.421962	1.016224	-1.082053	-3.081547	7.535912	0.000000	0.000000	-1.059191	-4.206895	11.108058	4.960070	-8.288080	50.493893	51.326947	26.006082	-2.919560	15.869351	13.374810	-7.484028	60.026801	50.070432	82.235876	5.829001	16.866385
3.500000	2.008123	-5.644912	109.042947	0.115400	0.944445	0.457412	6.943203	-0.355346	-29.012940	11.879737	0.207341	28.829807	16.973452	0.000000	9.359614	-1.852848	-0.262371	12.162688	0.212279	27.317103	-8.053901	0.000000	-0.164921	-0.298471	1.314408	-0.306274	-0.396967	1.396559	-0.270948	-0.725703	1.396559	-0.188488	-0.725703	1.150107	-0.153145	-0.608642	1.067957	-0.094236	-0.462332	0.985806	-1.178011	-3.376366	7.310343	0.000000	0.000000	-1.295912	-3.945148	11.626565	4.963102	-8.227359	50.632014	51.418924	24.576770	-3.102226	15.433665	13.151591	-7.619950	59.651965	50.238612	81.733561	5.834136	17.368613
3.516667	1.817696	-5.543599	108.995057	0.115182	0.944619	0.456588	6.790338	-0.559883	-29.103037	12.059104	0.210471	29.053235	17.032665	0.000000	9.080209	-1.647060	0.220308	12.039150	0.210123	27.242684	-8.501455	0.000000	-0.178776	-0.321470	1.270513	-0.332004	-0.427556	1.349921	-0.293710	-0.781623	1.349921	-0.204323	-0.781623	1.111699	-0.166011	-0.655543	1.032292	-0.102152	-0.497958	0.952885	-1.276976	-3.636538	7.066215	0.000000	0.000000	-1.623983	-3.599745	12.126847	5.009347	-8.175131	50.892444	51.466743	23.035729	-3.335016	15.041180	12.939806	-7.739924	59.299652	50.367826	81.011188	5.874703	17.925169
3.533333	1.659992	-5.415944	108.975475	0.114970	0.944757	0.455847	6.608676	-0.708312	-29.168687	12.183189	0.212637	29.323655	17.055085	0.000000	8.845226	-1.476793	0.833651	12.028129	0.209930	27.247595	-9.032041	0.000000	-0.191981	-0.340922	1.230294	-0.356527	-0.453426	1.307187	-0.315405	-0.828917	1.307187	-0.219415	-0.828917	1.076507	-0.178273	-0.695208	0.999614	-0.109698	-0.528088	0.922720	-1.371298	-3.856575	6.842524	0.000000	0.000000	-2.038305	-3.222015	12.558774	5.078332	-8.127920	51.254808	51.459828	21.499432	-3.620680	14.679343	12.798975	-7.848650	59.142262	50.437360	79.901489	5.884747	18.485428
3.550000	1.534730	-5.250408	109.010397	0.114717	0.944874	0.455244	6.399264	-0.816522	-29.330722	12.286833	0.214446	29.627300	17.118134	0.000000	8.647557	-1.340439	1.542234	12.117282	0.211486	27.342386	-9.607503	0.000000	-0.206658	-0.356293	1.193920	-0.383785	-0.473869	1.268540	-0.339519	-0.866290	1.268540	-0.236190	-0.866290	1.044680	-0.191903	-0.726552	0.970060	-0.118084	-0.551897	0.895440	-1.476138	-4.030455	6.640226	0.000000	0.000000	-2.513809	-2.838114	12.846788	5.159294	-8.086046	51.655202	51.398830	20.004845	-3.896177	14.462078	12.713290	-7.908836	59.087934	50.428813	78.717597	5.940475	19.048457
3.566667	1.445872	-5.049103	109.103113	0.114418	0.944974	0.454767	6.155467	-0.872348	-29.554670	12.348348	0.215519	29.923814	17.196443	0.000000	8.485166	-1.250218	2.291609	12.296841	0.214620	27.551745	-10.145986	0.000000	-0.222239	-0.366845	1.164502	-0.412720	-0.487904	1.237284	-0.365117	-0.891947	1.237284	-0.253997	-0.891947	1.018939	-0.206371	-0.748070	0.946158	-0.126987	-0.568243	0.873377	-1.587432	-4.149824	6.476612	0.000000	0.000000	-3.030734	-2.493575	12.961346	5.232144	-8.050405	52.052462	51.289517	18.724708	-4.133452	14.367779	12.701581	-7.926317	59.213197	50.348247	77.422167	5.959287	19.553284
3.583333	1.389982	-4.818959	109.243444	0.114082	0.945048	0.454414	5.883535	-0.880787	-29.822571	12.370523	0.215906	30.185446	17.282478	0.000000	8.352274	-1.202177	3.059488	12.547881	0.219002	27.861109	-10.639819	0.000000	-0.238521	-0.373059	1.144008	-0.442957	-0.496169	1.215509	-0.391866	-0.907056	1.215509	-0.272605	-0.907056	1.001007	-0.221490	-0.760742	0.929507	-0.136291	-0.577869	0.858006	-1.703730	-4.220119	6.362630	0.000000	0.000000	-3.552827	-2.196567	12.886863	5.294302	-8.030428	52.436265	51.153105	17.728962	-4.298896	14.368207	12.745094	-7.902003	59.455459	50.212902	76.195930	5.975103	19.962722
3.600000	1.349477	-4.569373	109.372777	0.113786	0.945119	0.454144	5.596782	-0.858112	-30.067084	12.373767	0.215963	30.391291	17.355499	0.000000	8.220868	-1.191745	3.726227	12.829751	0.223921	28.231522	-11.028596	0.000000	-0.255907	-0.376910	1.143032	-0.475245	-0.501291	1.214471	-0.420429	-0.916420	1.214471	-0.292476	-0.916420	1.000153	-0.237635	-0.768596	0.928713	-0.146225	-0.583834	0.857274	-1.827917	-4.263685	6.357199	0.000000	0.000000	-4.047201	-1.970103	12.608084	5.334032	-8.018537	52.765969	51.001166	16.973597	-4.408182	14.420837	12.868629	-7.852990	59.874693	50.039504	75.018074	5.938003	20.240852
